<mxfile host="app.diagrams.net" modified="2023-05-28T15:52:08.798Z" agent="Mozilla/5.0 (Windows NT 10.0; Win64; x64) AppleWebKit/537.36 (KHTML, like Gecko) Chrome/112.0.0.0 Safari/537.36 OPR/98.0.0.0" etag="Ngf3UOYaVRAzoU7kgt6-" version="21.3.4" type="device">
  <diagram name="Page-1" id="GFIvSLtLIXp5ERF9A66N">
    <mxGraphModel dx="790" dy="440" grid="0" gridSize="10" guides="0" tooltips="1" connect="0" arrows="0" fold="1" page="1" pageScale="1" pageWidth="827" pageHeight="1169" background="#ffffff" math="0" shadow="0">
      <root>
        <mxCell id="0" />
        <mxCell id="1" parent="0" />
        <mxCell id="tNx4KRhvCRcn8NS1-yf5-1" value="" style="rounded=0;whiteSpace=wrap;html=1;fillColor=none;strokeColor=#000000;connectable=0;allowArrows=0;cloneable=0;" vertex="1" parent="1">
          <mxGeometry x="188" y="139" width="446" height="456" as="geometry" />
        </mxCell>
        <mxCell id="tNx4KRhvCRcn8NS1-yf5-2" value="&lt;font color=&quot;#000000&quot;&gt;&lt;b&gt;UC&lt;/b&gt;&lt;/font&gt;" style="rounded=0;whiteSpace=wrap;html=1;fillColor=none;strokeColor=#000000;fontSize=37;connectable=0;allowArrows=0;cloneable=0;" vertex="1" parent="1">
          <mxGeometry x="260" y="195" width="141" height="346" as="geometry" />
        </mxCell>
        <mxCell id="tNx4KRhvCRcn8NS1-yf5-5" value="&lt;font color=&quot;#000000&quot;&gt;&lt;b&gt;UE&lt;/b&gt;&lt;/font&gt;" style="rounded=0;whiteSpace=wrap;html=1;fillColor=none;strokeColor=#000000;fontSize=37;connectable=0;allowArrows=0;cloneable=0;" vertex="1" parent="1">
          <mxGeometry x="440" y="195" width="141" height="346" as="geometry" />
        </mxCell>
        <mxCell id="tNx4KRhvCRcn8NS1-yf5-6" value="" style="endArrow=classic;html=1;rounded=0;fontColor=#000000;strokeColor=#000000;entryX=-0.001;entryY=0.094;entryDx=0;entryDy=0;entryPerimeter=0;cloneable=0;" edge="1" parent="1" target="tNx4KRhvCRcn8NS1-yf5-1">
          <mxGeometry width="50" height="50" relative="1" as="geometry">
            <mxPoint x="60" y="183" as="sourcePoint" />
            <mxPoint x="178" y="181" as="targetPoint" />
          </mxGeometry>
        </mxCell>
        <mxCell id="tNx4KRhvCRcn8NS1-yf5-7" value="" style="endArrow=classic;html=1;rounded=0;fontColor=#000000;strokeColor=#000000;entryX=-0.001;entryY=0.094;entryDx=0;entryDy=0;entryPerimeter=0;cloneable=0;" edge="1" parent="1">
          <mxGeometry width="50" height="50" relative="1" as="geometry">
            <mxPoint x="60" y="223" as="sourcePoint" />
            <mxPoint x="188" y="223" as="targetPoint" />
          </mxGeometry>
        </mxCell>
        <mxCell id="tNx4KRhvCRcn8NS1-yf5-8" value="" style="endArrow=classic;html=1;rounded=0;fontColor=#000000;strokeColor=#000000;entryX=-0.001;entryY=0.094;entryDx=0;entryDy=0;entryPerimeter=0;cloneable=0;" edge="1" parent="1">
          <mxGeometry width="50" height="50" relative="1" as="geometry">
            <mxPoint x="60" y="263" as="sourcePoint" />
            <mxPoint x="188" y="263" as="targetPoint" />
          </mxGeometry>
        </mxCell>
        <mxCell id="tNx4KRhvCRcn8NS1-yf5-9" value="" style="endArrow=classic;html=1;rounded=0;fontColor=#000000;strokeColor=#000000;entryX=-0.001;entryY=0.094;entryDx=0;entryDy=0;entryPerimeter=0;cloneable=0;" edge="1" parent="1">
          <mxGeometry width="50" height="50" relative="1" as="geometry">
            <mxPoint x="60" y="303" as="sourcePoint" />
            <mxPoint x="188" y="303" as="targetPoint" />
          </mxGeometry>
        </mxCell>
        <mxCell id="tNx4KRhvCRcn8NS1-yf5-10" value="" style="endArrow=classic;html=1;rounded=0;fontColor=#000000;strokeColor=#000000;entryX=-0.001;entryY=0.094;entryDx=0;entryDy=0;entryPerimeter=0;cloneable=0;" edge="1" parent="1">
          <mxGeometry width="50" height="50" relative="1" as="geometry">
            <mxPoint x="60" y="343" as="sourcePoint" />
            <mxPoint x="188" y="343" as="targetPoint" />
          </mxGeometry>
        </mxCell>
        <mxCell id="tNx4KRhvCRcn8NS1-yf5-11" value="" style="endArrow=classic;html=1;rounded=0;fontColor=#000000;strokeColor=#000000;entryX=-0.001;entryY=0.094;entryDx=0;entryDy=0;entryPerimeter=0;cloneable=0;" edge="1" parent="1">
          <mxGeometry width="50" height="50" relative="1" as="geometry">
            <mxPoint x="60" y="383" as="sourcePoint" />
            <mxPoint x="188" y="383" as="targetPoint" />
          </mxGeometry>
        </mxCell>
        <mxCell id="tNx4KRhvCRcn8NS1-yf5-12" value="" style="endArrow=classic;html=1;rounded=0;fontColor=#000000;strokeColor=#000000;entryX=-0.001;entryY=0.094;entryDx=0;entryDy=0;entryPerimeter=0;cloneable=0;" edge="1" parent="1">
          <mxGeometry width="50" height="50" relative="1" as="geometry">
            <mxPoint x="60" y="423" as="sourcePoint" />
            <mxPoint x="188" y="423" as="targetPoint" />
          </mxGeometry>
        </mxCell>
        <mxCell id="tNx4KRhvCRcn8NS1-yf5-13" value="" style="endArrow=classic;html=1;rounded=0;fontColor=#000000;strokeColor=#000000;entryX=-0.001;entryY=0.094;entryDx=0;entryDy=0;entryPerimeter=0;cloneable=0;" edge="1" parent="1">
          <mxGeometry width="50" height="50" relative="1" as="geometry">
            <mxPoint x="60" y="567" as="sourcePoint" />
            <mxPoint x="188" y="567" as="targetPoint" />
          </mxGeometry>
        </mxCell>
        <mxCell id="tNx4KRhvCRcn8NS1-yf5-14" value="&lt;font color=&quot;#000000&quot;&gt;&lt;span style=&quot;font-size: 20px;&quot;&gt;Etaj&lt;/span&gt;&lt;/font&gt;" style="text;html=1;strokeColor=none;fillColor=none;align=center;verticalAlign=middle;whiteSpace=wrap;rounded=0;cloneable=0;" vertex="1" parent="1">
          <mxGeometry x="120" y="153" width="60" height="30" as="geometry" />
        </mxCell>
        <mxCell id="tNx4KRhvCRcn8NS1-yf5-15" value="&lt;font style=&quot;font-size: 13px;&quot; color=&quot;#000000&quot;&gt;Persoana_in_usa&lt;/font&gt;" style="text;html=1;strokeColor=none;fillColor=none;align=center;verticalAlign=middle;whiteSpace=wrap;rounded=0;cloneable=0;" vertex="1" parent="1">
          <mxGeometry x="30" y="195" width="190" height="30" as="geometry" />
        </mxCell>
        <mxCell id="tNx4KRhvCRcn8NS1-yf5-16" value="" style="endArrow=none;html=1;rounded=0;strokeColor=#000000;cloneable=0;" edge="1" parent="1">
          <mxGeometry width="50" height="50" relative="1" as="geometry">
            <mxPoint x="120" y="193" as="sourcePoint" />
            <mxPoint x="100" y="173" as="targetPoint" />
          </mxGeometry>
        </mxCell>
        <mxCell id="tNx4KRhvCRcn8NS1-yf5-17" value="&lt;font color=&quot;#000000&quot;&gt;4&lt;/font&gt;" style="text;html=1;strokeColor=none;fillColor=none;align=center;verticalAlign=middle;whiteSpace=wrap;rounded=0;cloneable=0;" vertex="1" parent="1">
          <mxGeometry x="100" y="173" width="20" as="geometry" />
        </mxCell>
        <mxCell id="tNx4KRhvCRcn8NS1-yf5-18" value="&lt;font color=&quot;#000000&quot;&gt;&lt;span style=&quot;font-size: 13px;&quot;&gt;Greutate_depasita&lt;/span&gt;&lt;/font&gt;" style="text;html=1;strokeColor=none;fillColor=none;align=center;verticalAlign=middle;whiteSpace=wrap;rounded=0;cloneable=0;" vertex="1" parent="1">
          <mxGeometry x="30" y="233" width="190" height="30" as="geometry" />
        </mxCell>
        <mxCell id="tNx4KRhvCRcn8NS1-yf5-19" value="&lt;font color=&quot;#000000&quot;&gt;&lt;span style=&quot;font-size: 13px;&quot;&gt;Cerere_interior&lt;br&gt;&lt;/span&gt;&lt;/font&gt;" style="text;html=1;strokeColor=none;fillColor=none;align=center;verticalAlign=middle;whiteSpace=wrap;rounded=0;cloneable=0;" vertex="1" parent="1">
          <mxGeometry x="30" y="273" width="190" height="30" as="geometry" />
        </mxCell>
        <mxCell id="tNx4KRhvCRcn8NS1-yf5-20" value="&lt;font color=&quot;#000000&quot;&gt;&lt;span style=&quot;font-size: 13px;&quot;&gt;Cerere_exterior_sus&lt;br&gt;&lt;/span&gt;&lt;/font&gt;" style="text;html=1;strokeColor=none;fillColor=none;align=center;verticalAlign=middle;whiteSpace=wrap;rounded=0;cloneable=0;" vertex="1" parent="1">
          <mxGeometry x="30" y="313" width="190" height="30" as="geometry" />
        </mxCell>
        <mxCell id="tNx4KRhvCRcn8NS1-yf5-21" value="&lt;font color=&quot;#000000&quot;&gt;&lt;span style=&quot;font-size: 13px;&quot;&gt;Cerere_exterior_jos&lt;br&gt;&lt;/span&gt;&lt;/font&gt;" style="text;html=1;strokeColor=none;fillColor=none;align=center;verticalAlign=middle;whiteSpace=wrap;rounded=0;cloneable=0;" vertex="1" parent="1">
          <mxGeometry x="30" y="353" width="190" height="30" as="geometry" />
        </mxCell>
        <mxCell id="tNx4KRhvCRcn8NS1-yf5-22" value="&lt;font color=&quot;#000000&quot;&gt;&lt;span style=&quot;font-size: 20px;&quot;&gt;OK&lt;/span&gt;&lt;/font&gt;" style="text;html=1;strokeColor=none;fillColor=none;align=center;verticalAlign=middle;whiteSpace=wrap;rounded=0;cloneable=0;" vertex="1" parent="1">
          <mxGeometry x="95" y="393" width="60" height="30" as="geometry" />
        </mxCell>
        <mxCell id="tNx4KRhvCRcn8NS1-yf5-23" value="&lt;font color=&quot;#000000&quot;&gt;&lt;span style=&quot;font-size: 20px;&quot;&gt;CLK&lt;/span&gt;&lt;/font&gt;" style="text;html=1;strokeColor=none;fillColor=none;align=center;verticalAlign=middle;whiteSpace=wrap;rounded=0;cloneable=0;" vertex="1" parent="1">
          <mxGeometry x="95" y="533" width="60" height="30" as="geometry" />
        </mxCell>
        <mxCell id="tNx4KRhvCRcn8NS1-yf5-24" value="" style="endArrow=classic;html=1;rounded=0;fontColor=#000000;strokeColor=#000000;entryX=-0.001;entryY=0.094;entryDx=0;entryDy=0;entryPerimeter=0;cloneable=0;" edge="1" parent="1">
          <mxGeometry width="50" height="50" relative="1" as="geometry">
            <mxPoint x="634" y="183" as="sourcePoint" />
            <mxPoint x="762" y="183" as="targetPoint" />
          </mxGeometry>
        </mxCell>
        <mxCell id="tNx4KRhvCRcn8NS1-yf5-25" value="" style="endArrow=classic;html=1;rounded=0;fontColor=#000000;strokeColor=#000000;entryX=-0.001;entryY=0.094;entryDx=0;entryDy=0;entryPerimeter=0;cloneable=0;" edge="1" parent="1">
          <mxGeometry width="50" height="50" relative="1" as="geometry">
            <mxPoint x="634" y="223" as="sourcePoint" />
            <mxPoint x="762" y="223" as="targetPoint" />
          </mxGeometry>
        </mxCell>
        <mxCell id="tNx4KRhvCRcn8NS1-yf5-26" value="" style="endArrow=classic;html=1;rounded=0;fontColor=#000000;strokeColor=#000000;entryX=-0.001;entryY=0.094;entryDx=0;entryDy=0;entryPerimeter=0;cloneable=0;" edge="1" parent="1">
          <mxGeometry width="50" height="50" relative="1" as="geometry">
            <mxPoint x="634" y="263" as="sourcePoint" />
            <mxPoint x="762" y="263" as="targetPoint" />
          </mxGeometry>
        </mxCell>
        <mxCell id="tNx4KRhvCRcn8NS1-yf5-27" value="" style="endArrow=classic;html=1;rounded=0;fontColor=#000000;strokeColor=#000000;entryX=-0.001;entryY=0.094;entryDx=0;entryDy=0;entryPerimeter=0;cloneable=0;" edge="1" parent="1">
          <mxGeometry width="50" height="50" relative="1" as="geometry">
            <mxPoint x="634" y="303" as="sourcePoint" />
            <mxPoint x="762" y="303" as="targetPoint" />
          </mxGeometry>
        </mxCell>
        <mxCell id="tNx4KRhvCRcn8NS1-yf5-28" value="" style="endArrow=classic;html=1;rounded=0;fontColor=#000000;strokeColor=#000000;entryX=-0.001;entryY=0.094;entryDx=0;entryDy=0;entryPerimeter=0;cloneable=0;" edge="1" parent="1">
          <mxGeometry width="50" height="50" relative="1" as="geometry">
            <mxPoint x="634" y="343" as="sourcePoint" />
            <mxPoint x="762" y="343" as="targetPoint" />
          </mxGeometry>
        </mxCell>
        <mxCell id="tNx4KRhvCRcn8NS1-yf5-29" value="" style="endArrow=classic;html=1;rounded=0;fontColor=#000000;strokeColor=#000000;entryX=-0.001;entryY=0.094;entryDx=0;entryDy=0;entryPerimeter=0;cloneable=0;" edge="1" parent="1">
          <mxGeometry width="50" height="50" relative="1" as="geometry">
            <mxPoint x="634" y="383" as="sourcePoint" />
            <mxPoint x="762" y="383" as="targetPoint" />
          </mxGeometry>
        </mxCell>
        <mxCell id="tNx4KRhvCRcn8NS1-yf5-30" value="" style="endArrow=classic;html=1;rounded=0;fontColor=#000000;strokeColor=#000000;entryX=-0.001;entryY=0.094;entryDx=0;entryDy=0;entryPerimeter=0;cloneable=0;" edge="1" parent="1">
          <mxGeometry width="50" height="50" relative="1" as="geometry">
            <mxPoint x="634" y="423" as="sourcePoint" />
            <mxPoint x="762" y="423" as="targetPoint" />
          </mxGeometry>
        </mxCell>
        <mxCell id="tNx4KRhvCRcn8NS1-yf5-31" value="" style="endArrow=classic;html=1;rounded=0;fontColor=#000000;strokeColor=#000000;entryX=-0.001;entryY=0.094;entryDx=0;entryDy=0;entryPerimeter=0;cloneable=0;" edge="1" parent="1">
          <mxGeometry width="50" height="50" relative="1" as="geometry">
            <mxPoint x="634" y="463" as="sourcePoint" />
            <mxPoint x="762" y="463" as="targetPoint" />
          </mxGeometry>
        </mxCell>
        <mxCell id="tNx4KRhvCRcn8NS1-yf5-33" value="&lt;font color=&quot;#000000&quot;&gt;&lt;span style=&quot;font-size: 13px;&quot;&gt;Deschidere_usa&lt;br&gt;&lt;/span&gt;&lt;/font&gt;" style="text;html=1;strokeColor=none;fillColor=none;align=center;verticalAlign=middle;whiteSpace=wrap;rounded=0;cloneable=0;" vertex="1" parent="1">
          <mxGeometry x="600" y="153" width="190" height="30" as="geometry" />
        </mxCell>
        <mxCell id="tNx4KRhvCRcn8NS1-yf5-34" value="&lt;font color=&quot;#000000&quot;&gt;&lt;span style=&quot;font-size: 13px;&quot;&gt;Usa_inchisa&lt;br&gt;&lt;/span&gt;&lt;/font&gt;" style="text;html=1;strokeColor=none;fillColor=none;align=center;verticalAlign=middle;whiteSpace=wrap;rounded=0;cloneable=0;" vertex="1" parent="1">
          <mxGeometry x="600" y="195" width="190" height="30" as="geometry" />
        </mxCell>
        <mxCell id="tNx4KRhvCRcn8NS1-yf5-35" value="&lt;font color=&quot;#000000&quot;&gt;&lt;span style=&quot;font-size: 13px;&quot;&gt;Mers_intre_etaje&lt;br&gt;&lt;/span&gt;&lt;/font&gt;" style="text;html=1;strokeColor=none;fillColor=none;align=center;verticalAlign=middle;whiteSpace=wrap;rounded=0;cloneable=0;" vertex="1" parent="1">
          <mxGeometry x="600" y="233" width="190" height="30" as="geometry" />
        </mxCell>
        <mxCell id="tNx4KRhvCRcn8NS1-yf5-36" value="&lt;font color=&quot;#000000&quot;&gt;&lt;span style=&quot;font-size: 13px;&quot;&gt;Ajungere_etaj&lt;br&gt;&lt;/span&gt;&lt;/font&gt;" style="text;html=1;strokeColor=none;fillColor=none;align=center;verticalAlign=middle;whiteSpace=wrap;rounded=0;cloneable=0;" vertex="1" parent="1">
          <mxGeometry x="600" y="273" width="190" height="30" as="geometry" />
        </mxCell>
        <mxCell id="tNx4KRhvCRcn8NS1-yf5-37" value="&lt;font color=&quot;#000000&quot;&gt;&lt;span style=&quot;font-size: 13px;&quot;&gt;Greutate_incorecta&lt;br&gt;&lt;/span&gt;&lt;/font&gt;" style="text;html=1;strokeColor=none;fillColor=none;align=center;verticalAlign=middle;whiteSpace=wrap;rounded=0;cloneable=0;" vertex="1" parent="1">
          <mxGeometry x="600" y="313" width="190" height="30" as="geometry" />
        </mxCell>
        <mxCell id="tNx4KRhvCRcn8NS1-yf5-38" value="&lt;font color=&quot;#000000&quot;&gt;&lt;span style=&quot;font-size: 13px;&quot;&gt;Persoana_in_usa&lt;br&gt;&lt;/span&gt;&lt;/font&gt;" style="text;html=1;strokeColor=none;fillColor=none;align=center;verticalAlign=middle;whiteSpace=wrap;rounded=0;cloneable=0;" vertex="1" parent="1">
          <mxGeometry x="600" y="353" width="190" height="30" as="geometry" />
        </mxCell>
        <mxCell id="tNx4KRhvCRcn8NS1-yf5-39" value="&lt;font color=&quot;#000000&quot;&gt;&lt;span style=&quot;font-size: 13px;&quot;&gt;Anozi&lt;br&gt;&lt;/span&gt;&lt;/font&gt;" style="text;html=1;strokeColor=none;fillColor=none;align=center;verticalAlign=middle;whiteSpace=wrap;rounded=0;cloneable=0;" vertex="1" parent="1">
          <mxGeometry x="600" y="393" width="190" height="30" as="geometry" />
        </mxCell>
        <mxCell id="tNx4KRhvCRcn8NS1-yf5-40" value="&lt;font color=&quot;#000000&quot;&gt;&lt;span style=&quot;font-size: 13px;&quot;&gt;Catozi&lt;br&gt;&lt;/span&gt;&lt;/font&gt;" style="text;html=1;strokeColor=none;fillColor=none;align=center;verticalAlign=middle;whiteSpace=wrap;rounded=0;cloneable=0;" vertex="1" parent="1">
          <mxGeometry x="600" y="430" width="190" height="30" as="geometry" />
        </mxCell>
        <mxCell id="tNx4KRhvCRcn8NS1-yf5-47" value="" style="endArrow=none;html=1;rounded=0;strokeColor=#000000;" edge="1" parent="1">
          <mxGeometry width="50" height="50" relative="1" as="geometry">
            <mxPoint x="188" y="183" as="sourcePoint" />
            <mxPoint x="432" y="183" as="targetPoint" />
          </mxGeometry>
        </mxCell>
        <mxCell id="tNx4KRhvCRcn8NS1-yf5-52" value="" style="endArrow=none;html=1;rounded=0;strokeColor=#000000;" edge="1" parent="1">
          <mxGeometry width="50" height="50" relative="1" as="geometry">
            <mxPoint x="432" y="204" as="sourcePoint" />
            <mxPoint x="432" y="183" as="targetPoint" />
          </mxGeometry>
        </mxCell>
        <mxCell id="tNx4KRhvCRcn8NS1-yf5-53" value="" style="endArrow=none;html=1;rounded=0;strokeColor=#000000;" edge="1" parent="1">
          <mxGeometry width="50" height="50" relative="1" as="geometry">
            <mxPoint x="440" y="204" as="sourcePoint" />
            <mxPoint x="432" y="204" as="targetPoint" />
          </mxGeometry>
        </mxCell>
        <mxCell id="tNx4KRhvCRcn8NS1-yf5-54" value="" style="endArrow=none;html=1;rounded=0;strokeColor=#000000;entryX=0.831;entryY=0.936;entryDx=0;entryDy=0;entryPerimeter=0;" edge="1" parent="1" target="tNx4KRhvCRcn8NS1-yf5-15">
          <mxGeometry width="50" height="50" relative="1" as="geometry">
            <mxPoint x="260" y="223" as="sourcePoint" />
            <mxPoint x="427" y="321" as="targetPoint" />
          </mxGeometry>
        </mxCell>
        <mxCell id="tNx4KRhvCRcn8NS1-yf5-55" value="" style="endArrow=none;html=1;rounded=0;strokeColor=#000000;entryX=0.831;entryY=0.936;entryDx=0;entryDy=0;entryPerimeter=0;" edge="1" parent="1">
          <mxGeometry width="50" height="50" relative="1" as="geometry">
            <mxPoint x="260" y="263" as="sourcePoint" />
            <mxPoint x="188" y="263" as="targetPoint" />
          </mxGeometry>
        </mxCell>
        <mxCell id="tNx4KRhvCRcn8NS1-yf5-56" value="" style="endArrow=none;html=1;rounded=0;strokeColor=#000000;entryX=0.831;entryY=0.936;entryDx=0;entryDy=0;entryPerimeter=0;" edge="1" parent="1">
          <mxGeometry width="50" height="50" relative="1" as="geometry">
            <mxPoint x="260" y="303" as="sourcePoint" />
            <mxPoint x="188" y="303" as="targetPoint" />
          </mxGeometry>
        </mxCell>
        <mxCell id="tNx4KRhvCRcn8NS1-yf5-57" value="" style="endArrow=none;html=1;rounded=0;strokeColor=#000000;entryX=0.831;entryY=0.936;entryDx=0;entryDy=0;entryPerimeter=0;" edge="1" parent="1">
          <mxGeometry width="50" height="50" relative="1" as="geometry">
            <mxPoint x="260" y="343" as="sourcePoint" />
            <mxPoint x="187" y="343" as="targetPoint" />
          </mxGeometry>
        </mxCell>
        <mxCell id="tNx4KRhvCRcn8NS1-yf5-58" value="" style="endArrow=none;html=1;rounded=0;strokeColor=#000000;entryX=0.831;entryY=0.936;entryDx=0;entryDy=0;entryPerimeter=0;" edge="1" parent="1">
          <mxGeometry width="50" height="50" relative="1" as="geometry">
            <mxPoint x="260" y="383" as="sourcePoint" />
            <mxPoint x="188" y="383" as="targetPoint" />
          </mxGeometry>
        </mxCell>
        <mxCell id="tNx4KRhvCRcn8NS1-yf5-59" value="" style="endArrow=none;html=1;rounded=0;strokeColor=#000000;entryX=0.831;entryY=0.936;entryDx=0;entryDy=0;entryPerimeter=0;" edge="1" parent="1">
          <mxGeometry width="50" height="50" relative="1" as="geometry">
            <mxPoint x="260" y="423" as="sourcePoint" />
            <mxPoint x="188" y="423" as="targetPoint" />
          </mxGeometry>
        </mxCell>
        <mxCell id="tNx4KRhvCRcn8NS1-yf5-60" value="" style="endArrow=none;html=1;rounded=0;strokeColor=#000000;" edge="1" parent="1">
          <mxGeometry width="50" height="50" relative="1" as="geometry">
            <mxPoint x="188" y="567" as="sourcePoint" />
            <mxPoint x="431" y="566" as="targetPoint" />
          </mxGeometry>
        </mxCell>
        <mxCell id="tNx4KRhvCRcn8NS1-yf5-61" value="" style="endArrow=none;html=1;rounded=0;strokeColor=#000000;" edge="1" parent="1">
          <mxGeometry width="50" height="50" relative="1" as="geometry">
            <mxPoint x="431" y="533" as="sourcePoint" />
            <mxPoint x="431" y="566" as="targetPoint" />
          </mxGeometry>
        </mxCell>
        <mxCell id="tNx4KRhvCRcn8NS1-yf5-62" value="" style="endArrow=none;html=1;rounded=0;strokeColor=#000000;" edge="1" parent="1">
          <mxGeometry width="50" height="50" relative="1" as="geometry">
            <mxPoint x="440" y="533" as="sourcePoint" />
            <mxPoint x="431" y="533" as="targetPoint" />
          </mxGeometry>
        </mxCell>
        <mxCell id="tNx4KRhvCRcn8NS1-yf5-63" value="" style="endArrow=none;html=1;rounded=0;strokeColor=#000000;" edge="1" parent="1">
          <mxGeometry width="50" height="50" relative="1" as="geometry">
            <mxPoint x="251" y="534" as="sourcePoint" />
            <mxPoint x="251" y="567" as="targetPoint" />
          </mxGeometry>
        </mxCell>
        <mxCell id="tNx4KRhvCRcn8NS1-yf5-64" value="" style="endArrow=none;html=1;rounded=0;strokeColor=#000000;" edge="1" parent="1">
          <mxGeometry width="50" height="50" relative="1" as="geometry">
            <mxPoint x="260" y="534" as="sourcePoint" />
            <mxPoint x="251" y="534" as="targetPoint" />
          </mxGeometry>
        </mxCell>
        <mxCell id="tNx4KRhvCRcn8NS1-yf5-65" value="" style="endArrow=none;html=1;rounded=0;strokeColor=#000000;exitX=0.185;exitY=1;exitDx=0;exitDy=0;exitPerimeter=0;" edge="1" parent="1" source="tNx4KRhvCRcn8NS1-yf5-33">
          <mxGeometry width="50" height="50" relative="1" as="geometry">
            <mxPoint x="290" y="419" as="sourcePoint" />
            <mxPoint x="595" y="183" as="targetPoint" />
          </mxGeometry>
        </mxCell>
        <mxCell id="tNx4KRhvCRcn8NS1-yf5-66" value="" style="endArrow=none;html=1;rounded=0;strokeColor=#000000;" edge="1" parent="1">
          <mxGeometry width="50" height="50" relative="1" as="geometry">
            <mxPoint x="595" y="204" as="sourcePoint" />
            <mxPoint x="595" y="183" as="targetPoint" />
          </mxGeometry>
        </mxCell>
        <mxCell id="tNx4KRhvCRcn8NS1-yf5-67" value="" style="endArrow=none;html=1;rounded=0;strokeColor=#000000;" edge="1" parent="1">
          <mxGeometry width="50" height="50" relative="1" as="geometry">
            <mxPoint x="595" y="204" as="sourcePoint" />
            <mxPoint x="581" y="204" as="targetPoint" />
          </mxGeometry>
        </mxCell>
        <mxCell id="tNx4KRhvCRcn8NS1-yf5-68" value="" style="endArrow=none;html=1;rounded=0;strokeColor=#000000;entryX=0.184;entryY=0.933;entryDx=0;entryDy=0;entryPerimeter=0;" edge="1" parent="1" target="tNx4KRhvCRcn8NS1-yf5-34">
          <mxGeometry width="50" height="50" relative="1" as="geometry">
            <mxPoint x="581" y="223" as="sourcePoint" />
            <mxPoint x="594" y="228" as="targetPoint" />
          </mxGeometry>
        </mxCell>
        <mxCell id="tNx4KRhvCRcn8NS1-yf5-69" value="" style="endArrow=none;html=1;rounded=0;strokeColor=#000000;entryX=0.184;entryY=0.933;entryDx=0;entryDy=0;entryPerimeter=0;" edge="1" parent="1">
          <mxGeometry width="50" height="50" relative="1" as="geometry">
            <mxPoint x="581" y="263" as="sourcePoint" />
            <mxPoint x="635" y="263" as="targetPoint" />
          </mxGeometry>
        </mxCell>
        <mxCell id="tNx4KRhvCRcn8NS1-yf5-70" value="" style="endArrow=none;html=1;rounded=0;strokeColor=#000000;entryX=0.184;entryY=0.933;entryDx=0;entryDy=0;entryPerimeter=0;" edge="1" parent="1">
          <mxGeometry width="50" height="50" relative="1" as="geometry">
            <mxPoint x="581" y="303" as="sourcePoint" />
            <mxPoint x="635" y="303" as="targetPoint" />
          </mxGeometry>
        </mxCell>
        <mxCell id="tNx4KRhvCRcn8NS1-yf5-71" value="" style="endArrow=none;html=1;rounded=0;strokeColor=#000000;entryX=0.184;entryY=0.933;entryDx=0;entryDy=0;entryPerimeter=0;" edge="1" parent="1">
          <mxGeometry width="50" height="50" relative="1" as="geometry">
            <mxPoint x="593" y="343" as="sourcePoint" />
            <mxPoint x="635" y="343" as="targetPoint" />
          </mxGeometry>
        </mxCell>
        <mxCell id="tNx4KRhvCRcn8NS1-yf5-72" value="" style="endArrow=none;html=1;rounded=0;strokeColor=#000000;entryX=0.184;entryY=0.933;entryDx=0;entryDy=0;entryPerimeter=0;" edge="1" parent="1">
          <mxGeometry width="50" height="50" relative="1" as="geometry">
            <mxPoint x="610" y="383" as="sourcePoint" />
            <mxPoint x="635" y="383" as="targetPoint" />
          </mxGeometry>
        </mxCell>
        <mxCell id="tNx4KRhvCRcn8NS1-yf5-73" value="" style="endArrow=none;html=1;rounded=0;strokeColor=#000000;entryX=0.184;entryY=0.933;entryDx=0;entryDy=0;entryPerimeter=0;" edge="1" parent="1">
          <mxGeometry width="50" height="50" relative="1" as="geometry">
            <mxPoint x="581" y="423" as="sourcePoint" />
            <mxPoint x="635" y="423" as="targetPoint" />
          </mxGeometry>
        </mxCell>
        <mxCell id="tNx4KRhvCRcn8NS1-yf5-74" value="" style="endArrow=none;html=1;rounded=0;strokeColor=#000000;entryX=0.184;entryY=0.933;entryDx=0;entryDy=0;entryPerimeter=0;" edge="1" parent="1">
          <mxGeometry width="50" height="50" relative="1" as="geometry">
            <mxPoint x="581" y="463" as="sourcePoint" />
            <mxPoint x="635" y="463" as="targetPoint" />
          </mxGeometry>
        </mxCell>
        <mxCell id="tNx4KRhvCRcn8NS1-yf5-75" value="" style="endArrow=none;html=1;rounded=0;strokeColor=#000000;" edge="1" parent="1">
          <mxGeometry width="50" height="50" relative="1" as="geometry">
            <mxPoint x="610" y="552" as="sourcePoint" />
            <mxPoint x="610" y="383" as="targetPoint" />
          </mxGeometry>
        </mxCell>
        <mxCell id="tNx4KRhvCRcn8NS1-yf5-76" value="" style="endArrow=none;html=1;rounded=0;strokeColor=#000000;" edge="1" parent="1">
          <mxGeometry width="50" height="50" relative="1" as="geometry">
            <mxPoint x="408" y="553" as="sourcePoint" />
            <mxPoint x="610" y="552" as="targetPoint" />
          </mxGeometry>
        </mxCell>
        <mxCell id="tNx4KRhvCRcn8NS1-yf5-80" value="" style="endArrow=none;html=1;rounded=0;strokeColor=#000000;" edge="1" parent="1">
          <mxGeometry width="50" height="50" relative="1" as="geometry">
            <mxPoint x="408" y="553" as="sourcePoint" />
            <mxPoint x="408" y="537" as="targetPoint" />
          </mxGeometry>
        </mxCell>
        <mxCell id="tNx4KRhvCRcn8NS1-yf5-81" value="" style="endArrow=none;html=1;rounded=0;strokeColor=#000000;" edge="1" parent="1">
          <mxGeometry width="50" height="50" relative="1" as="geometry">
            <mxPoint x="408" y="537" as="sourcePoint" />
            <mxPoint x="401" y="537" as="targetPoint" />
          </mxGeometry>
        </mxCell>
        <mxCell id="tNx4KRhvCRcn8NS1-yf5-82" value="" style="endArrow=none;html=1;rounded=0;strokeColor=#000000;" edge="1" parent="1">
          <mxGeometry width="50" height="50" relative="1" as="geometry">
            <mxPoint x="593" y="562" as="sourcePoint" />
            <mxPoint x="593" y="343" as="targetPoint" />
          </mxGeometry>
        </mxCell>
        <mxCell id="tNx4KRhvCRcn8NS1-yf5-83" value="" style="endArrow=none;html=1;rounded=0;strokeColor=#000000;" edge="1" parent="1">
          <mxGeometry width="50" height="50" relative="1" as="geometry">
            <mxPoint x="419" y="563" as="sourcePoint" />
            <mxPoint x="593" y="562" as="targetPoint" />
          </mxGeometry>
        </mxCell>
        <mxCell id="tNx4KRhvCRcn8NS1-yf5-84" value="" style="endArrow=none;html=1;rounded=0;strokeColor=#000000;" edge="1" parent="1">
          <mxGeometry width="50" height="50" relative="1" as="geometry">
            <mxPoint x="419" y="530" as="sourcePoint" />
            <mxPoint x="419" y="563" as="targetPoint" />
          </mxGeometry>
        </mxCell>
        <mxCell id="tNx4KRhvCRcn8NS1-yf5-85" value="" style="endArrow=none;html=1;rounded=0;strokeColor=#000000;" edge="1" parent="1">
          <mxGeometry width="50" height="50" relative="1" as="geometry">
            <mxPoint x="419" y="530" as="sourcePoint" />
            <mxPoint x="401" y="530" as="targetPoint" />
          </mxGeometry>
        </mxCell>
        <mxCell id="tNx4KRhvCRcn8NS1-yf5-86" value="" style="endArrow=classic;html=1;rounded=0;strokeColor=#FF0000;" edge="1" parent="1">
          <mxGeometry width="50" height="50" relative="1" as="geometry">
            <mxPoint x="401" y="256" as="sourcePoint" />
            <mxPoint x="440" y="256" as="targetPoint" />
          </mxGeometry>
        </mxCell>
        <mxCell id="tNx4KRhvCRcn8NS1-yf5-88" value="" style="endArrow=classic;html=1;rounded=0;strokeColor=#FF0000;" edge="1" parent="1">
          <mxGeometry width="50" height="50" relative="1" as="geometry">
            <mxPoint x="401" y="278" as="sourcePoint" />
            <mxPoint x="440" y="278" as="targetPoint" />
          </mxGeometry>
        </mxCell>
        <mxCell id="tNx4KRhvCRcn8NS1-yf5-89" value="" style="endArrow=classic;html=1;rounded=0;strokeColor=#FF0000;" edge="1" parent="1">
          <mxGeometry width="50" height="50" relative="1" as="geometry">
            <mxPoint x="401" y="299" as="sourcePoint" />
            <mxPoint x="440" y="299" as="targetPoint" />
          </mxGeometry>
        </mxCell>
        <mxCell id="tNx4KRhvCRcn8NS1-yf5-90" value="" style="endArrow=classic;html=1;rounded=0;strokeColor=#FF0000;" edge="1" parent="1">
          <mxGeometry width="50" height="50" relative="1" as="geometry">
            <mxPoint x="401" y="321" as="sourcePoint" />
            <mxPoint x="440" y="321" as="targetPoint" />
          </mxGeometry>
        </mxCell>
        <mxCell id="tNx4KRhvCRcn8NS1-yf5-91" value="" style="endArrow=classic;html=1;rounded=0;strokeColor=#FF0000;" edge="1" parent="1">
          <mxGeometry width="50" height="50" relative="1" as="geometry">
            <mxPoint x="401" y="342" as="sourcePoint" />
            <mxPoint x="440" y="342" as="targetPoint" />
          </mxGeometry>
        </mxCell>
        <mxCell id="tNx4KRhvCRcn8NS1-yf5-92" value="" style="endArrow=classic;html=1;rounded=0;strokeColor=#FF0000;" edge="1" parent="1">
          <mxGeometry width="50" height="50" relative="1" as="geometry">
            <mxPoint x="401" y="361" as="sourcePoint" />
            <mxPoint x="440" y="361" as="targetPoint" />
          </mxGeometry>
        </mxCell>
        <mxCell id="tNx4KRhvCRcn8NS1-yf5-93" value="&lt;font color=&quot;#ff0000&quot;&gt;&lt;span style=&quot;font-size: 10px;&quot;&gt;Load&lt;/span&gt;&lt;/font&gt;" style="text;html=1;strokeColor=none;fillColor=none;align=center;verticalAlign=middle;whiteSpace=wrap;rounded=0;" vertex="1" parent="1">
          <mxGeometry x="390" y="231" width="60" height="30" as="geometry" />
        </mxCell>
        <mxCell id="tNx4KRhvCRcn8NS1-yf5-95" value="&lt;font style=&quot;font-size: 6px;&quot; color=&quot;#ff0000&quot;&gt;EN_Interior&lt;/font&gt;" style="text;html=1;strokeColor=none;fillColor=none;align=center;verticalAlign=middle;whiteSpace=wrap;rounded=0;" vertex="1" parent="1">
          <mxGeometry x="390" y="254" width="60" height="30" as="geometry" />
        </mxCell>
        <mxCell id="tNx4KRhvCRcn8NS1-yf5-96" value="&lt;font style=&quot;font-size: 6px;&quot; color=&quot;#ff0000&quot;&gt;EN_ext_sus&lt;/font&gt;" style="text;html=1;strokeColor=none;fillColor=none;align=center;verticalAlign=middle;whiteSpace=wrap;rounded=0;" vertex="1" parent="1">
          <mxGeometry x="390" y="273" width="60" height="30" as="geometry" />
        </mxCell>
        <mxCell id="tNx4KRhvCRcn8NS1-yf5-97" value="&lt;font style=&quot;font-size: 6px;&quot; color=&quot;#ff0000&quot;&gt;EN_ext_jos&lt;/font&gt;" style="text;html=1;strokeColor=none;fillColor=none;align=center;verticalAlign=middle;whiteSpace=wrap;rounded=0;" vertex="1" parent="1">
          <mxGeometry x="390" y="294" width="60" height="30" as="geometry" />
        </mxCell>
        <mxCell id="tNx4KRhvCRcn8NS1-yf5-98" value="&lt;font style=&quot;font-size: 5px;&quot; color=&quot;#ff0000&quot;&gt;EN_Inchidere_usa&lt;/font&gt;" style="text;html=1;strokeColor=none;fillColor=none;align=center;verticalAlign=middle;whiteSpace=wrap;rounded=0;" vertex="1" parent="1">
          <mxGeometry x="402" y="321" width="37" height="21" as="geometry" />
        </mxCell>
        <mxCell id="tNx4KRhvCRcn8NS1-yf5-99" value="&lt;font color=&quot;#ff0000&quot;&gt;&lt;span style=&quot;font-size: 10px;&quot;&gt;DIR&lt;/span&gt;&lt;/font&gt;" style="text;html=1;strokeColor=none;fillColor=none;align=center;verticalAlign=middle;whiteSpace=wrap;rounded=0;" vertex="1" parent="1">
          <mxGeometry x="388" y="338" width="60" height="30" as="geometry" />
        </mxCell>
        <mxCell id="tNx4KRhvCRcn8NS1-yf5-100" value="" style="endArrow=classic;html=1;rounded=0;strokeColor=#FF0000;" edge="1" parent="1">
          <mxGeometry width="50" height="50" relative="1" as="geometry">
            <mxPoint x="440" y="380" as="sourcePoint" />
            <mxPoint x="401" y="380" as="targetPoint" />
          </mxGeometry>
        </mxCell>
        <mxCell id="tNx4KRhvCRcn8NS1-yf5-101" value="" style="endArrow=classic;html=1;rounded=0;strokeColor=#FF0000;" edge="1" parent="1">
          <mxGeometry width="50" height="50" relative="1" as="geometry">
            <mxPoint x="440" y="399" as="sourcePoint" />
            <mxPoint x="401" y="399" as="targetPoint" />
          </mxGeometry>
        </mxCell>
        <mxCell id="tNx4KRhvCRcn8NS1-yf5-102" value="&lt;font color=&quot;#ff0000&quot;&gt;&lt;span style=&quot;font-size: 10px;&quot;&gt;Reset&lt;/span&gt;&lt;/font&gt;" style="text;html=1;strokeColor=none;fillColor=none;align=center;verticalAlign=middle;whiteSpace=wrap;rounded=0;" vertex="1" parent="1">
          <mxGeometry x="395" y="358" width="60" height="30" as="geometry" />
        </mxCell>
        <mxCell id="tNx4KRhvCRcn8NS1-yf5-103" value="&lt;font style=&quot;font-size: 7px;&quot; color=&quot;#ff0000&quot;&gt;Fara_cereri&lt;/font&gt;" style="text;html=1;strokeColor=none;fillColor=none;align=center;verticalAlign=middle;whiteSpace=wrap;rounded=0;" vertex="1" parent="1">
          <mxGeometry x="390" y="374" width="60" height="30" as="geometry" />
        </mxCell>
      </root>
    </mxGraphModel>
  </diagram>
</mxfile>
